# xmcd CD database file
#
# Track frame offsets:
#	150
#	13909
#	32372
#	48522
#	61262
#	73997
#	97663
#	114356
#	131902
#	155331
#	171908
#	193350
#	210924
#
# Disc length: 3924 seconds
#
# Revision: 0
# Processed by: cddbd v1.5.1PL2 Copyright (c) Steve Scherf et al.
# Submitted via: CDex 1.50
#
DISCID=b10f520d
DTITLE=Steve Passfield - Live At The Mean Fiddler
DYEAR=2002
DGENRE=Country
TTITLE0=New Jugs Cuz (Live)
TTITLE1=Belfast Mill (Live)
TTITLE2=Bucket (Live)
TTITLE3=Wobbly Boot (Live)
TTITLE4=Tell Me Ma (Live)
TTITLE5=Lanigans (Live)
TTITLE6=Melody (Live)
TTITLE7=Wild Side (Live)
TTITLE8=Devil (Live)
TTITLE9=Drivin' Man (Live)
TTITLE10=Waltzing Matilda (Live)
TTITLE11=I'm Australian (Live)
TTITLE12=OBS (Live)
EXTD=YEAR: 2002
EXTT0=
EXTT1=
EXTT2=
EXTT3=
EXTT4=
EXTT5=
EXTT6=
EXTT7=
EXTT8=
EXTT9=
EXTT10=
EXTT11=
EXTT12=
PLAYORDER=
